<?xml version="1.0" standalone="no"?><!DOCTYPE svg PUBLIC "-//W3C//DTD SVG 1.1//EN" "http://www.w3.org/Graphics/SVG/1.1/DTD/svg11.dtd"><svg t="1532485282347" class="icon" style="" viewBox="0 0 1024 1024" version="1.1" xmlns="http://www.w3.org/2000/svg" p-id="4108" xmlns:xlink="http://www.w3.org/1999/xlink" width="200" height="200"><defs><style type="text/css"></style></defs><path d="M512 512m-424.448 0a424.448 424.448 0 1 0 848.896 0 424.448 424.448 0 1 0-848.896 0Z" fill="#FFFFFF" p-id="4109"></path><path d="M582.144 731.136l-71.424 204.544-69.632-204.544v-157.952h141.056z" fill="#FEE1B9" p-id="4110"></path><path d="M510.72 935.68l71.424-204.544v-157.952h-71.424z" fill="#FFD9AC" p-id="4111"></path><path d="M321.792 433.152c-2.304-23.552 10.496-44.544 28.672-47.104s34.816 14.592 37.376 38.144c2.304 23.552-10.496 44.544-28.672 47.104-18.432 2.56-35.072-14.592-37.376-38.144z" fill="#FEE1B9" p-id="4112"></path><path d="M664.064 471.296c-18.176-2.048-30.464-22.784-27.392-46.336s20.224-41.216 38.4-39.168c18.176 2.048 30.464 22.784 27.392 46.336-3.072 23.808-20.224 41.216-38.4 39.168z" fill="#FFD9AC" p-id="4113"></path><path d="M512 234.752s-150.016 6.4-150.016 86.528v162.816c0 31.488 50.944 121.344 96.768 125.184 23.04 1.792 52.992 4.352 52.992 4.352s30.208-2.56 52.992-4.352c45.824-3.84 96.256-93.696 96.256-125.184v-158.464C661.504 245.76 512 234.752 512 234.752z" fill="#FEE1B9" p-id="4114"></path><path d="M512 234.752s-150.016 6.4-150.016 86.528v162.816c0 31.488 50.944 121.344 96.768 125.184 23.04 1.792 52.992 4.352 52.992 4.352s30.208-2.56 52.992-4.352c45.824-3.84 96.256-93.696 96.256-125.184v-158.464C661.504 245.76 512 234.752 512 234.752z" fill="#FEE1B9" p-id="4115"></path><path d="M661.504 325.632v158.464c0 31.488-50.944 121.344-96.768 125.184-23.04 1.792-52.992 4.352-52.992 4.352v-378.88s149.76 11.008 149.76 90.88z" fill="#FFD9AC" p-id="4116"></path><path d="M512 935.68v-251.648s-53.76-13.312-65.536-56.832c-5.632-20.992-5.632-16.384-5.632 5.12 0 64.768-152.32 36.864-193.536 86.784-32.512 45.056-55.04 216.576-55.04 216.576H512z" fill="#FEE1B9" p-id="4117"></path><path d="M511.744 935.68V670.72s51.2-1.024 60.928-25.856c3.584-8.96 9.472-33.536 9.472-12.032 0 64.768 152.832 36.352 194.048 86.272 32.512 45.056 55.04 216.576 55.04 216.576H511.744z" fill="#FFD9AC" p-id="4118"></path><path d="M422.4 662.016s-147.968 19.456-180.736 60.416c-26.368 33.28-44.544 175.36-53.248 214.016H512V686.08l-89.6-24.064z" fill="#D0D4D7" p-id="4119"></path><path d="M601.856 662.016s148.736 19.968 181.504 60.928c26.368 33.28 43.776 174.848 52.224 213.504H512V686.08l89.856-24.064z" fill="#B9C7D0" p-id="4120"></path><path d="M511.744 853.248l0.256-176.384-91.392-18.688L512 936.448" fill="#D0D4D7" p-id="4121"></path><path d="M522.496 729.088l20.736-20.736-31.232-31.232-30.976 31.232 20.736 20.736-28.16 152.32 38.4 55.04 38.656-55.04z" fill="#436B85" p-id="4122"></path><path d="M543.232 708.352L512 677.12l-0.256 0.512v258.048l0.256 0.768 38.656-55.04-28.16-152.32z" fill="#315D76" p-id="4123"></path><path d="M512 676.864l73.472-37.12 37.888 22.272-61.696 88.064z" fill="#D0D4D7" p-id="4124"></path><path d="M512.256 676.864l-73.472-37.12-37.888 22.272 74.496 88.064z" fill="#FFFFFF" p-id="4125"></path><path d="M347.648 417.792h14.336l19.2-133.12s-43.52-17.152-52.48 35.328c-8.96 52.224 18.944 97.792 18.944 97.792zM668.672 417.792h-14.336l-19.2-133.12s43.52-17.152 52.48 35.328c8.96 52.224-18.944 97.792-18.944 97.792z" fill="#61402F" p-id="4126"></path><path d="M364.544 297.984s60.928 47.36 145.408 47.36 164.352-26.112 200.704-97.28c-2.048 0.512-64.768-10.752-143.36-70.656-98.816-75.52-284.416 36.608-202.752 120.576z" fill="#61402F" p-id="4127"></path></svg>