<?xml version="1.0" standalone="no"?><!DOCTYPE svg PUBLIC "-//W3C//DTD SVG 1.1//EN" "http://www.w3.org/Graphics/SVG/1.1/DTD/svg11.dtd"><svg t="1533094202226" class="icon" style="" viewBox="0 0 1024 1024" version="1.1" xmlns="http://www.w3.org/2000/svg" p-id="576" xmlns:xlink="http://www.w3.org/1999/xlink" width="200" height="200"><defs><style type="text/css"></style></defs><path d="M199.111111 142.222222h170.666667v142.222222h-170.666667zM426.666667 142.222222h170.666666v142.222222h-170.666666zM654.222222 142.222222h170.666667v142.222222h-170.666667zM199.111111 341.333333h170.666667v142.222223h-170.666667zM426.666667 341.333333h170.666666v142.222223h-170.666666zM654.222222 341.333333h170.666667v142.222223h-170.666667zM199.111111 540.444444h170.666667v142.222223h-170.666667zM199.111111 739.555556h398.222222v142.222222h-398.222222zM426.666667 540.444444h170.666666v142.222223h-170.666666zM654.222222 540.444444h170.666667v142.222223h-170.666667z" fill="#616F79" p-id="577"></path><path d="M796.444444 1024h-568.888888c-79.644444 0-142.222222-62.577778-142.222223-142.222222v-739.555556c0-79.644444 62.577778-142.222222 142.222223-142.222222h568.888888c79.644444 0 142.222222 62.577778 142.222223 142.222222v739.555556c0 79.644444-62.577778 142.222222-142.222223 142.222222z m-568.888888-967.111111c-48.355556 0-85.333333 36.977778-85.333334 85.333333v739.555556c0 48.355556 36.977778 85.333333 85.333334 85.333333h568.888888c48.355556 0 85.333333-36.977778 85.333334-85.333333v-739.555556c0-48.355556-36.977778-85.333333-85.333334-85.333333h-568.888888z" fill="#616F79" p-id="578"></path></svg>