<?xml version="1.0" standalone="no"?><!DOCTYPE svg PUBLIC "-//W3C//DTD SVG 1.1//EN" "http://www.w3.org/Graphics/SVG/1.1/DTD/svg11.dtd"><svg class="icon" width="128px" height="128.00px" viewBox="0 0 1024 1024" version="1.1" xmlns="http://www.w3.org/2000/svg"><path fill="#333333" d="M552.21671 489.73913s1.335652-8.058435-8.325566-14.380521c0 0-50.843826-50.93287-24.175304-93.851826 0 0 5.431652-8.815304 11.397565-11.442087 6.678261-2.893913 14.024348 0.890435 15.538087 13.712695 0 0 5.431652 42.74087 27.113739 33.569392 8.45913-3.33913-8.503652-9.794783-5.787826-21.99374 0 0 2.092522-6.678261-2.537739-11.442086-7.301565-7.479652-19.812174-18.075826-23.730087-29.072696 0 0-32.545391-81.563826 71.546435-126.886957 0 0 43.631304-16.918261 29.428869 9.483131-69.453913 122.568348-50.220522 207.471304-90.468173 252.304695M956.652188 24.887652c-31.610435-24.709565-89.266087-24.709565-89.266087-24.709565-54.316522-2.80487-187.302957 31.966609-187.302957 31.966609-11.353043 5.609739-2.493217 16.339478 5.787826 14.024347 23.28487-6.455652 67.584 1.202087 67.584 4.006957 2.982957 14.024348 5.787826 8.325565 14.246957 16.784696 2.982957 2.80487 2.982957 14.024348 2.982956 14.024347s0 2.80487-2.938434 5.60974c-2.849391 2.80487-8.548174 5.654261-8.548174 5.65426-54.494609-4.585739-227.817739 107.430957-243.177739 193.981218-4.897391 27.692522-5.698783 33.702957-5.698783 33.702956-47.059478 92.249043 29.696 118.51687 38.288696 126.886957 2.893913 2.849391 10.284522 1.78087 10.284521 1.780869-82.498783 235.698087-214.550261 270.514087-214.55026 270.514087-110.85913 26.980174-190.464 80.806957-190.464 80.806957s134.099478-44.521739 182.138434-51.2c55.696696-10.418087-6.010435 18.16487-6.010434 18.16487C124.140188 858.37913 67.241405 905.928348 67.241405 905.928348c-8.993391 10.952348 108.321391-56.364522 236.054261-86.861913 48.840348-11.842783 72.659478-11.353043 95.454609-12.198957 47.86087-1.78087 71.546435-17.942261 78.714435-17.363478 19.411478-2.671304 62.864696-14.825739-19.411479 38.733913-54.850783 35.706435-214.861913 62.018783-214.861913 62.018783s146.16487 11.308522 343.885913-126.842435c20.034783-14.024348 28.271304-22.617043 39.802435-23.462957 5.832348-0.445217 24.709565-3.739826-15.538087 32.678957-75.820522 68.741565-247.941565 140.198957-247.941565 140.198956 130.893913-16.473043 261.698783-124.215652 261.698783-124.215652C598.741927 902.455652 440.289057 1024 440.289057 1024c129.068522-64.24487 259.027478-310.984348 259.027479-310.984348 70.745043-112.862609 83.567304-244.646957 83.567304-244.646956 0 6.054957 10.150957-9.794783 8.370087 14.469565a18.298435 18.298435 0 0 0 14.157913 20.836174c22.082783 3.517217 0.934957-18.788174-0.890435-27.781565-0.890435-4.630261-0.044522-10.373565-0.890435-17.719653-2.671304-23.418435 32.411826-94.386087 52.802783-152.353391 25.733565-67.450435 22.884174-123.681391 22.884174-123.681391-2.80487-89.933913-60.104348-104.047304-60.104348-104.047305-8.592696-2.80487-5.698783-16.873739-5.698782-16.873739s0-2.80487 2.893913-2.804869c2.849391 0 5.698783-5.520696 5.698782-5.520696 2.893913-2.80487 2.893913-8.45913-2.849391-11.264-2.938435-2.80487-5.743304-2.80487-8.637218-2.804869h-2.804869c26.000696-22.082783 120.07513-2.80487 120.07513-2.80487 35.617391 4.585739 28.716522-11.130435 28.716522-11.130435" /></svg>