<?xml version="1.0" standalone="no"?><!DOCTYPE svg PUBLIC "-//W3C//DTD SVG 1.1//EN" "http://www.w3.org/Graphics/SVG/1.1/DTD/svg11.dtd"><svg class="icon" width="128px" height="122.27px" viewBox="0 0 1072 1024" version="1.1" xmlns="http://www.w3.org/2000/svg"><path fill="#333333" d="M1036.825356 1024H35.938499A36.278857 36.278857 0 0 1 0.000975 987.428571c0-20.187429 16.091429-36.571429 35.937524-36.571428h280.478476v-81.968762H197.047832a34.816 34.816 0 0 1-28.086857-13.897143c-6.631619-8.777143-9.118476-20.138667-6.631619-31.110095L350.306499 27.794286a35.547429 35.547429 0 0 1 69.388191 0l87.57638 370.346666a301.104762 301.104762 0 0 0-97.03619 221.915429c0 50.468571 12.336762 99.620571 36.327619 143.798857 1.609143 2.486857 3.267048 5.022476 4.534857 7.996952a294.13181 294.13181 0 0 0 90.063238 96.646096H453.974309v81.968762h180.906666v-115.565715a226.06019 226.06019 0 0 1-152.819809-214.844952c0-124.830476 99.961905-226.54781 222.646857-226.54781s222.646857 101.717333 222.646857 226.54781a226.06019 226.06019 0 0 1-152.81981 214.844952v115.565715h263.509334c9.508571 0 18.627048 3.803429 25.209905 10.532571a46.811429 46.811429 0 0 1 9.508571 26.477714c0 20.187429-16.091429 36.571429-35.937524 36.571429z" /></svg>