<?xml version="1.0" standalone="no"?><!DOCTYPE svg PUBLIC "-//W3C//DTD SVG 1.1//EN" "http://www.w3.org/Graphics/SVG/1.1/DTD/svg11.dtd"><svg class="icon" width="128px" height="128.00px" viewBox="0 0 1024 1024" version="1.1" xmlns="http://www.w3.org/2000/svg"><path fill="#333333" d="M766.603636 0L311.249455 166.074182v41.565091l413.928727-136.145455v951.063273H1000.727273v-60.974546h-96.721455V116.317091L767.208727 0h-0.605091zM162.909091 438.923636v98.257455l217.041454-58.321455V367.290182L162.909091 438.970182z m0 168.075637v94.161454l217.041454-42.356363v-107.52L162.909091 607.045818z m0 162.955636v92.16l217.041454-20.48v-107.287273L162.909091 769.954909z m0 156.625455V1024h217.041454v-112.779636L162.909091 926.580364zM23.505455 348.206545L23.272727 1024h62.929455V380.928l357.562182-110.778182v750.359273H628.363636V258.792727L501.434182 186.181818z" /></svg>