<?xml version="1.0" standalone="no"?><!DOCTYPE svg PUBLIC "-//W3C//DTD SVG 1.1//EN" "http://www.w3.org/Graphics/SVG/1.1/DTD/svg11.dtd"><svg t="1533094564954" class="icon" style="" viewBox="0 0 1024 1024" version="1.1" xmlns="http://www.w3.org/2000/svg" p-id="708" xmlns:xlink="http://www.w3.org/1999/xlink" width="200" height="200"><defs><style type="text/css"></style></defs><path d="M796.444444 1024h-568.888888c-79.644444 0-142.222222-62.577778-142.222223-142.222222v-739.555556c0-79.644444 62.577778-142.222222 142.222223-142.222222h568.888888c79.644444 0 142.222222 62.577778 142.222223 142.222222v739.555556c0 79.644444-62.577778 142.222222-142.222223 142.222222z m-568.888888-967.111111c-48.355556 0-85.333333 36.977778-85.333334 85.333333v739.555556c0 48.355556 36.977778 85.333333 85.333334 85.333333h568.888888c48.355556 0 85.333333-36.977778 85.333334-85.333333v-739.555556c0-48.355556-36.977778-85.333333-85.333334-85.333333h-568.888888z" fill="#616F79" p-id="709"></path><path d="M341.333333 298.666667c25.6 0 42.666667 19.911111 42.666667 42.666666v56.888889c0 25.6-17.066667 42.666667-42.666667 42.666667h-56.888889c-22.755556 0-42.666667-17.066667-42.666666-42.666667v-56.888889c0-22.755556 19.911111-42.666667 42.666666-42.666666h56.888889z m0-42.666667h-56.888889c-45.511111 0-85.333333 39.822222-85.333333 85.333333v56.888889c0 48.355556 39.822222 85.333333 85.333333 85.333334h56.888889c48.355556 0 85.333333-36.977778 85.333334-85.333334v-56.888889c0-45.511111-36.977778-85.333333-85.333334-85.333333zM711.111111 256c48.355556 0 85.333333 39.822222 85.333333 85.333333v56.888889c0 48.355556-36.977778 85.333333-85.333333 85.333334h-56.888889c-45.511111 0-85.333333-36.977778-85.333333-85.333334v-56.888889c0-45.511111 39.822222-85.333333 85.333333-85.333333h56.888889zM347.022222 640c25.6 0 42.666667 17.066667 42.666667 42.666667v56.888889c0 22.755556-19.911111 42.666667-42.666667 42.666666h-59.733333c-25.6 0-42.666667-17.066667-42.666667-42.666666v-56.888889c0-22.755556 19.911111-42.666667 42.666667-42.666667h59.733333z m0-42.666667h-59.733333c-48.355556 0-88.177778 36.977778-88.177778 85.333334v56.888889c0 45.511111 39.822222 85.333333 88.177778 85.333333h59.733333c48.355556 0 88.177778-36.977778 88.177778-85.333333v-56.888889c-2.844444-45.511111-39.822222-85.333333-88.177778-85.333334z m145.066667-110.933333c-11.377778 0-22.755556-8.533333-22.755556-19.911111v-187.733333c0-11.377778 11.377778-19.911111 22.755556-19.911112s22.755556 8.533333 22.755555 19.911112v187.733333c0 11.377778-11.377778 19.911111-22.755555 19.911111z m253.155555 76.8h-506.311111c-11.377778 0-22.755556-8.533333-22.755555-19.911111 0-11.377778 11.377778-19.911111 22.755555-19.911111h506.311111c11.377778 0 22.755556 8.533333 22.755556 19.911111 0 8.533333-11.377778 19.911111-22.755556 19.911111z m0 110.933333h-253.155555c-11.377778 0-22.755556-8.533333-22.755556-19.911111 0-11.377778 11.377778-19.911111 22.755556-19.911111h253.155555c11.377778 0 22.755556 8.533333 22.755556 19.911111-2.844444 11.377778-11.377778 19.911111-22.755556 19.911111z m0 113.777778h-253.155555c-11.377778 0-22.755556-8.533333-22.755556-19.911111 0-11.377778 11.377778-19.911111 22.755556-19.911111h253.155555c11.377778 0 22.755556 8.533333 22.755556 19.911111-2.844444 11.377778-11.377778 19.911111-22.755556 19.911111z" fill="#616F79" p-id="710"></path></svg>