<?xml version="1.0" standalone="no"?><!DOCTYPE svg PUBLIC "-//W3C//DTD SVG 1.1//EN" "http://www.w3.org/Graphics/SVG/1.1/DTD/svg11.dtd"><svg t="1532944292961" class="icon" style="" viewBox="0 0 1024 1024" version="1.1" xmlns="http://www.w3.org/2000/svg" p-id="3088" xmlns:xlink="http://www.w3.org/1999/xlink" width="128" height="128"><defs><style type="text/css"></style></defs><path d="M872 92c33.094 0 60 26.906 60 60v720c0 33.094-26.906 60-60 60h-720c-33.094 0-60-26.906-60-60v-720c0-33.094 26.906-60 60-60h720M872 32h-720c-66.281 0-120 53.719-120 120v720c0 66.281 53.719 120 120 120h720c66.281 0 120-53.719 120-120v-720c0-66.281-53.719-120-120-120z" fill="#ffffff" p-id="3089"></path><path d="M812 362h-600c-16.594 0-30-13.406-30-30s13.406-30 30-30h600c16.594 0 30 13.406 30 30s-13.406 30-30 30zM812 542h-600c-16.594 0-30-13.406-30-30s13.406-30 30-30h600c16.594 0 30 13.406 30 30s-13.406 30-30 30zM812 722h-600c-16.594 0-30-13.406-30-30s13.406-30 30-30h600c16.594 0 30 13.406 30 30s-13.406 30-30 30z" fill="#ffffff" p-id="3090"></path></svg>