<?xml version="1.0" standalone="no"?><!DOCTYPE svg PUBLIC "-//W3C//DTD SVG 1.1//EN" "http://www.w3.org/Graphics/SVG/1.1/DTD/svg11.dtd"><svg class="icon" width="128px" height="88.32px" viewBox="0 0 1484 1024" version="1.1" xmlns="http://www.w3.org/2000/svg"><path fill="#333333" d="M385.775412 962.562642c-8.703626-7.474879-5.938945-16.383296 8.089252-26.622855 14.079395-10.23956 34.66091-20.632713 61.539754-31.435449 27.134833-10.853933 57.597523-21.86146 91.644059-33.124975 33.995338-11.212318 66.608336-21.247086 98.094982-29.899515 14.028197-4.351813 25.086921-3.94223 33.227371 0.767967 8.089252 4.914989 15.615329 11.058724 22.731823 18.533603 7.167692 7.474879 15.666526 14.744966 25.957283 21.86146 10.23956 7.065296 25.086921 10.444351 44.490887 10.444351s34.200129-3.583846 44.542085-10.444351c10.23956-6.911703 19.147977-13.976999 26.674053-20.888701 7.526076-7.065296 15.052153-13.004241 22.731823-17.714439 7.526076-4.914989 18.431207-5.734153 32.459404-2.355098 31.230657 8.652428 64.304435 18.891988 98.914146 30.718679 34.609712 11.775494 65.686775 23.397394 93.179994 34.660909 27.493218 11.212318 48.279524 22.015053 62.307721 32.254613 14.079395 10.23956 15.666526 17.919229 4.966186 23.448592-25.906086 13.976999-60.720589 25.598899-104.443509 34.66091-43.72292 9.06201-91.234477 15.922515-142.637067 20.069537-51.248996 4.351813-104.289916 6.50212-158.866768 6.50212-54.628051 0-106.235432-2.355099-154.719747-7.270087-48.637909-4.914989-91.797653-11.826691-129.530431-20.888702-38.244755-9.471593-65.1236-20.479119-81.404499-33.278569zM1231.716636 138.329284a11.263516 11.263516 0 0 0 4.914989-0.767967c1.023956-0.614374 0-0.819165-3.123066-0.819165-78.947005-7.474879-150.163143 4.556604-213.904402 36.248041-63.690061 31.742635-119.854046 78.179038-168.543153 139.616397l16.229702 27.339624c29.08035-39.780689 59.184655-72.649676 90.00573-98.453366a437.280397 437.280397 0 0 1 93.999158-61.232567 400.571575 400.571575 0 0 1 93.179994-31.486646 556.008092 556.008092 0 0 1 87.241048-10.444351z m-594.918418 306.367626c-60.311007-51.556183-124.205859-84.834752-191.070184-99.9893-67.069116-15.000955-136.134946-13.413823-207.555875 4.914988-2.150308 0-2.764681 0.204791-1.535934 0.767967 0.972758 0.614374 2.764681 0.819165 4.914988 0.819165a804.829392 804.829392 0 0 1 95.535092-3.942231 388.284104 388.284104 0 0 1 98.14618 14.540175 456.991549 456.991549 0 0 1 98.14618 40.395063c32.408206 17.714438 64.253237 41.726206 95.535092 71.830512l7.935658-29.336339zM1120.00304 1.119184a418.234816 418.234816 0 0 1 133.72865 11.980285c43.72292 11.263516 82.684445 25.189317 116.73098 41.982194 33.995338 16.690482 61.488556 34.404921 82.684445 53.143315 20.991097 18.891988 31.640239 34.66091 31.640239 47.613953 0 13.004241-8.089252 20.683911-24.318954 23.448592-16.229702 2.764681-36.401635 5.11978-60.771787 7.270087-24.318954 2.201505-50.993007 6.143736-80.124555 12.031483a195.626788 195.626788 0 0 0-82.684444 39.575898c-17.20246 13.004241-33.790547 27.134833-49.457074 42.750162-15.615329 15.512933-31.230657 30.718679-47.101974 45.054062-15.615329 14.591373-31.845031 27.953998-48.637909 40.395063-16.792878 12.389867-34.814503 21.86146-54.218468 28.15879a397.806894 397.806894 0 0 1-35.58247 9.625186 138.899627 138.899627 0 0 1-44.542085 2.355098 136.442133 136.442133 0 0 1-48.637909-15.359339c-17.048867-8.242846-33.073778-22.834218-48.12593-43.108547-9.676384 12.79945-18.175218 28.158789-25.086921 45.873228-7.116494 17.714438-13.26023 36.862415-18.584801 57.341534-5.324571 20.479119-10.085966 41.726206-13.823406 63.741259-3.788637 22.066251-6.758109 42.750162-8.959615 62.051732-2.150308 16.127307-3.737439 36.196844-4.914988 60.413402-1.023956 24.267756-1.382341 48.074733-0.819165 71.881709 0.614374 23.653383 1.996714 45.514843 3.993428 65.379589 2.150308 19.915944 5.324571 34.046536 9.676384 42.750162 5.324571 9.625186 8.089252 17.714438 8.089252 24.216559 0 5.324571-2.764681 10.444351-8.089252 15.359339-5.324571 4.914989-15.615329 7.270087-30.872272 7.270087-17.20246 0-28.875558-2.355099-34.814503-7.270087-5.938945-4.914989-8.908417-10.034769-8.908417-15.359339-1.023956-6.50212 1.023956-13.976999 6.553318-22.680625 5.324571-10.802735 8.908417-23.397394 10.495549-37.988767 1.535934-14.540175 2.150308-30.104306 1.535934-46.845985a2273.438242 2273.438242 0 0 0-2.355099-50.788216c-1.023956-17.151262-1.535934-33.892943-1.535934-50.02025-17.048867-34.302525-33.892943-63.434072-50.071447-87.036257a649.495272 649.495272 0 0 0-53.450502-67.734687c-11.877889 25.80369-25.701295 45.054063-41.316623 58.058303a134.035836 134.035836 0 0 1-47.869942 26.622855 139.360408 139.360408 0 0 1-46.078018 6.450923 277.850452 277.850452 0 0 1-38.193558-3.891033 182.520152 182.520152 0 0 1-55.242424-18.533603 596.095968 596.095968 0 0 1-51.812173-30.718679c-17.20246-11.263516-34.814503-23.448592-52.631336-36.248041a447.21277 447.21277 0 0 0-54.218469-33.841745 184.568064 184.568064 0 0 0-86.626675-25.80369c-29.694723-1.023956-56.829556-0.204791-81.097313 2.355098a411.220718 411.220718 0 0 1-59.952622 3.174264C7.935659 425.600131 0 418.330044 0 404.353045s8.908417-31.742635 26.725251-53.143315c17.765636-21.503075 41.521415-42.750162 71.16494-63.843655 29.694723-20.837504 64.509226-39.729492 104.494706-56.471171a434.669309 434.669309 0 0 1 126.458563-31.537844c67.990676-6.50212 124.41065-2.918275 169.311119 10.444351 44.900469 13.413823 79.868566 32.510602 105.211476 57.341534 25.752493 24.984526 41.572612 53.348106 48.125931 85.602719 6.50212 32.305811 5.324571 64.611622-3.174264 96.866235 34.609712 31.128261 68.60505 70.908951 102.088411 119.342068 5.324571-52.733732 18.789592-105.928245 40.548656-159.685934 8.703626-18.328812 16.792878-33.841745 24.318954-46.845985 7.526076-13.004241 16.792878-26.98124 27.493218-41.982195a206.122337 206.122337 0 0 1-26.725251-99.835707c-0.563176-35.428877 9.727582-68.861039 30.872273-99.9893 21.195889-31.128261 53.808886-57.853512 98.146179-79.970962 44.081305-22.015053 102.446795-35.224085 174.89168-39.5247z" /></svg>