<?xml version="1.0" standalone="no"?><!DOCTYPE svg PUBLIC "-//W3C//DTD SVG 1.1//EN" "http://www.w3.org/Graphics/SVG/1.1/DTD/svg11.dtd"><svg class="icon" width="128px" height="128.00px" viewBox="0 0 1024 1024" version="1.1" xmlns="http://www.w3.org/2000/svg"><path fill="#333333" d="M582.019534 318.203237c9.564503-23.081862 15.987895-49.763648 17.434924-77.751289 2.047015-28.093521-1.799962-57.351722-10.199783-85.762883-8.646875-28.305281-22.023061-55.904694-40.693253-79.480664A211.054338 211.054338 0 0 0 483.268692 18.315493C459.022148 5.221654 433.999151-0.495872 416.528934 0.033529c-8.540995-0.282347-16.058482 2.082309-20.470153 3.24699L389.282454 5.609881s0.564694 2.364656 1.482322 6.9175c0.952921 4.235204 1.058801 11.576225 1.764668 18.317258 0.635281 14.858508-0.847041 32.822832-2.682296 52.445944-3.282283 38.646237-2.435242 83.821748 11.576225 128.361977 6.988087 22.128941 15.952602 44.257883 28.164107 64.586863a338.110461 338.110461 0 0 0 40.057972 55.76352c12.987959 14.399694 42.281454 47.78722 52.940051 56.257628 2.682296-18.917245 5.011658-38.328597 5.435179-57.987003 1.129388-13.870293 0.176467-27.599413-0.035293-41.187359-0.247054-13.658533-2.682296-26.822959-3.882271-39.740332-2.294069-12.705612-5.399885-24.881824-7.905714-36.493342L504.691766 181.300264c-4.941071-9.140982-9.529209-17.540804-13.51736-24.987704-3.529337-7.835128-9.352742-12.811492-12.776199-17.823151l-11.999745-15.176148s4.799898 5.152832 13.058546 14.187934c3.846977 4.764605 10.129196 9.458622 14.258521 17.046697l15.599668 24.42301 14.082054 31.411097c3.423457 11.646811 7.517487 23.928903 10.870357 36.881569 2.117602 13.093839 5.646939 26.611199 6.952793 40.552079 1.235268 13.94088 3.282283 28.128814 3.176403 42.352041 0.599987 16.164362 0.352934 32.187551-0.388227 47.928393 1.270561-1.376441 2.752883-2.505829 3.952858-4.023444 11.999745-13.446773 24.175957-32.822832 34.022806-55.8694M538.785159 352.967204c-1.588202 1.694082-3.03523 3.529337-4.870485 5.082245-3.211696 2.258776-8.188061 19.905459-9.317449 27.105306a796.853651 796.853651 0 0 1-20.611326 90.351021 600.057834 600.057834 0 0 0-56.681149-90.951008c-0.070587 1.764668 0 3.599923-0.352933 5.435178-0.705867 2.964643 4.905778 15.529082 7.693954 20.2231a589.11689 589.11689 0 0 1 42.281454 88.409885c-1.447028 3.282283-1.058801 157.020192 0.070587 246.700639C383.494342 748.958787 317.636918 783.15806 317.636918 783.15806c38.010957 14.611454 78.563036 22.870102 119.079822 27.175893l-3.67051 3.56463a141.032297 141.032297 0 0 1-5.858699 5.470472 76.304261 76.304261 0 0 0-11.646811 12.423266l-3.811684 7.23514c-1.623495 2.717589-2.188189 5.505765-3.070523 8.258648-1.517615 5.541059-2.011722 11.011531-3.529337 15.882015a26.434732 26.434732 0 0 1-7.65866 12.458559l-0.141174 0.141173c-2.188189 1.199974-3.88227 3.388163-6.529273 3.635217-2.188189 0.847041-5.294005 0.882334-8.117474 1.341148-5.646939 0.705867-11.293878 2.611709-16.693763 4.270498-9.95273 2.999936-19.834873 6.352806-29.717016 9.635089l1.023508-0.494107-3.529337 1.341148a3.03523 3.03523 0 0 0-0.564694 0.141173v0.035294H333.166l0.141173 0.458814c11.152704-2.470536 22.340702-4.764605 33.352233-7.588074 5.646939-1.341148 10.940944-2.858763 16.658469-3.282284 2.858763-0.282347 5.541059-0.21176 8.752755-1.199974 3.211696-0.352934 5.646939-2.858763 8.364528-4.517551 0.988214-0.847041 1.658788-1.976429 2.50583-2.858763-0.352934 2.011722-0.352934 4.058737-0.564694 6.176339a64.833916 64.833916 0 0 1-0.599988 6.423393c-0.176467 4.764605-1.058801 8.082181-3.105816 10.729184-2.047015 2.364656-5.823406 3.988151-8.576288 5.611645-5.823406 3.317577-8.823342 6.776327-8.964516 6.529273 0 0 3.988151-1.905842 10.129197-3.67051 2.92935-1.270561 6.952793-1.482321 10.69389-5.046951 3.494043-3.529337 4.799898-9.423329 5.117539-13.51736 0.21176-2.188189 0.282347-4.941071 0.282346-6.846913 0.10588-2.117602-0.070587-4.305791 0.211761-6.246926 0.42352-3.529337 0.670574-6.70574 1.270561-9.599796 0.352934-0.811747 0.811747-1.552908 1.058801-2.364656 1.799962-5.576352 2.576416-11.082117 3.846977-16.164362 0.635281-2.470536 1.270561-5.188125 2.435242-7.164554l3.670511-7.34102a82.58648 82.58648 0 0 1 10.37625-11.258585c1.941135-1.764668 3.952857-3.56463 5.858699-5.646938 1.905842-2.117602 3.811684-3.77639 5.646938-6.28222 0-0.070587 0.10588-0.141173 0.105881-0.141173 12.493852 1.164681 24.952411 2.047015 37.340382 2.576415-0.42352 1.305855-0.917628 2.541122-1.164681 4.023444l-3.035229 14.434988-2.294069 6.70574-0.564694 1.694081a7.693954 7.693954 0 0 0-0.811748 1.129388l-2.223482 3.03523c-2.647003 4.482258-6.282219 7.270434-9.458622 10.69389-3.35287 3.811684-7.305727 6.70574-9.74097 11.293877-2.999936 4.199911-4.941071 8.470408-6.211632 12.564439a31.481684 31.481684 0 0 1-5.046952 10.517424c-1.941135 2.858763-4.764605 4.941071-7.058673 6.741033l-6.211633 4.729311c-3.635217 2.470536-5.152832 4.658725-4.976365 4.694018-0.141173-0.141173 1.588202-1.905842 5.470472-3.88227l6.81162-3.811684c2.647003-1.623495 5.788112-3.176403 8.293941-6.423393a34.37574 34.37574 0 0 0 6.352806-10.835064c1.552908-4.164617 3.846977-7.976301 6.352807-11.435051 1.976429-3.635217 5.646939-6.423393 8.752755-9.635089-0.529401 1.658788-2.223482 3.56463-2.435243 6.70574-1.482321 6.3881-0.494107 14.505574 0.564694 22.375995 1.341148 7.623367 2.294069 15.176148 1.764669 20.823087 0.035293 2.894056-0.917628 5.082245-1.164681 6.811619l-0.635281 2.71759 1.411735-2.258776c0.670574-1.588202 2.823469-3.529337 3.317576-6.635153 0.635281-2.999936 1.764668-6.59986 1.447028-10.48213 0.141173-3.917564-0.529401-7.835128-0.847041-11.823278a214.689555 214.689555 0 0 1-2.047015-12.705612c2.470536 9.352742 7.764541 20.2231 13.129133 30.91699 5.999872 11.293878 11.893865 22.481875 14.964388 31.305217 1.552908 4.446964 2.152895 8.223355 2.117602 11.046824l-0.988215 4.235204 1.905842-4.058738a28.940561 28.940561 0 0 0-0.10588-11.999745c-1.870548-9.882143-7.482194-21.670128-13.199719-33.105178-5.999872-11.258584-12.105625-22.375995-15.564375-31.093457a43.022615 43.022615 0 0 1-2.92935-10.870357l0.282347-2.82347c3.529337-3.529337 7.588074-6.882207 10.05861-10.940944l2.117602-3.105816c0.494107-0.705867 0.564694-0.599987 1.305854-2.011722l0.564694-1.905842 2.435243-7.588074 2.611709-14.293814a30.352296 30.352296 0 0 1 1.235268-5.188125c9.317449 0.282347 18.493725 0.458814 27.634706 0.423521l-0.282346 3.176403c-0.176467 2.541122-0.31764 4.235204-0.635281 6.388099-0.176467 4.799898-1.058801 8.082181-3.070523 10.729184-2.082309 2.399949-5.858699 4.023444-8.611582 5.611646-5.823406 3.317577-8.823342 6.81162-8.964515 6.564566 0 0 3.988151-1.905842 10.129196-3.67051 2.964643-1.270561 6.9175-1.482321 10.729184-5.046952 3.423457-3.529337 4.799898-9.458622 5.117538-13.51736 0.176467-2.188189 0.282347-4.976365 0.282347-6.846913l0.070587-3.388163c12.529145-0.141173 24.846531-0.564694 36.881569-1.199975l-1.588201 6.882207c-1.411735 4.588138-1.552908 9.564503-1.552909 14.717334 0.10588 5.117538-0.635281 10.517424 0.247054 15.811429l1.905842 16.129069c1.623495 10.870357 4.764605 21.105434-0.070587 29.222908-4.411671 7.870421-12.352679 13.41148-18.140791 18.634898a50.469516 50.469516 0 0 0-7.658661 7.941008 19.411352 19.411352 0 0 0-3.98815 7.588074c-1.411735 4.729311 0.458814 7.446901 0 7.411607 0.42352 0.070587-1.023508-2.894056 0.847041-7.093967a17.893737 17.893737 0 0 1 4.588138-6.635153c2.117602-2.223482 4.941071-4.446964 8.011594-6.81162 6.070459-4.941071 14.576161-9.176276 20.32898-18.705485a29.046441 29.046441 0 0 0 3.494043-16.376122c-0.42352-5.788112-1.764668-10.764477-2.152895-16.093776l-2.223483-15.705548c-0.988214-5.188125-0.352934-10.235077-0.564693-15.282028-0.035293-4.941071-0.352934-9.776263 0.705867-14.117347l1.235268-7.729248c9.388036-0.564694 18.493725-1.235268 27.493533-2.047015 0.529401 2.92935 1.341148 5.788112 1.764668 8.752755l2.82347 12.705612 4.376377 11.999745c3.811684 7.693954 9.317449 14.646748 12.705613 21.493661 2.047015 3.176403 3.14111 7.23514 3.917564 11.435051 1.235268 4.235204 1.129388 7.376314 1.058801 11.823278-0.10588 8.188061-1.305855 17.329043 2.894056 26.364146a31.481684 31.481684 0 0 0 8.576288 10.305663c4.094031 2.682296 7.835128 3.35287 11.646811 4.976365 7.517487 2.964643 14.505574 7.482194 21.776008 11.187997l21.881888 11.223291 0.282347-0.388227-0.070587-0.176467-3.599923-2.470535 0.705867 0.63528-17.964324-11.611518c-7.12926-4.129324-13.764413-9.035102-21.352487-12.599732-3.529337-1.870548-7.976301-2.92935-10.729184-4.941071a26.540612 26.540612 0 0 1-6.988087-8.893929c-2.92935-6.529273-2.117602-15.105561-1.799962-23.575969a43.552015 43.552015 0 0 0-1.482321-13.3056 36.493342 36.493342 0 0 0-4.446964-12.176212c-4.341084-8.117475-9.352742-14.223227-13.552654-21.352487l-4.870484-11.435051-3.317577-11.929158c-0.705867-2.823469-1.764668-5.505765-2.611709-8.293942 5.435179-0.494107 10.835064-0.952921 16.093776-1.552908 5.646939 5.294005 10.658597 11.187997 18.070204 15.352615l0.070586 0.070587h0.105881c3.56463 0.847041 7.12926 2.117602 10.729183 2.682296l10.552717 1.058801c3.24699 0.176467 6.70574 0.529401 10.129197 1.305854 1.835255 0.494107 3.494043 0.352934 4.799898 1.199975l4.270497 2.047015c3.070523 1.058801 4.941071 4.164617 7.552781 6.352806 2.505829 2.788176 4.905778 5.858699 7.835127 7.764541 1.552908 1.094094 2.576416 2.082309 4.552845 3.282283 1.870548 0.705867 3.741097 1.623495 5.646939 1.658788 3.705804 0.529401 7.058674 0.247054 10.446836 0.458814l7.164554 1.764669 3.599923 0.84704c0.282347 0 0.564694 0.10588 0.811748 0.141174 0.352934 0.141173 0.564694 0.31764 1.058801 0.282347-0.529401-0.635281-1.129388-0.670574-1.729375-0.952921l-3.45875-1.376441-6.9175-2.788176h-0.176467c-3.529337-0.847041-7.164554-0.882334-10.37625-1.588202-1.694082-0.176467-2.92935-1.058801-4.376378-1.623495l-3.77639-3.35287c-2.92935-2.223482-4.623431-5.188125-6.9175-7.693954-2.717589-2.470536-4.870485-5.999872-8.470408-7.517487l-5.188125-2.647003c-1.764668-1.023508-3.77639-1.023508-5.364592-1.517615-0.917628-0.21176-1.941135-0.21176-2.858763-0.352933l2.999936-0.564694c2.435242-0.352934 5.929286-1.376441 10.023317-1.305855 4.094031-0.352934 8.823342-0.282347 14.011467 0.035294 5.117538-0.070587 10.658597 0.882334 16.164362 1.341148 11.082117 0.988214 22.340702 2.258776 30.846403 1.976428 8.505702-0.247054 14.117347-1.341148 14.117347-1.341148s-5.682232-0.529401-13.94088-1.764668c-8.258648-1.199974-19.270179-2.999936-30.49347-4.376378-5.646939-0.247054-11.293878-0.882334-16.658469-0.63528a61.339873 61.339873 0 0 0-14.646747 1.764668c-4.411671 0.458814-7.376314 2.576416-9.74097 3.35287l-3.105816 1.411735c-2.399949-0.458814-4.799898-0.952921-7.411607-1.023508l-10.411544-0.776454c-3.35287-0.352934-6.458686-1.411735-9.705676-2.047015-5.152832-2.92935-10.27037-7.199847-15.352615-11.435051C684.68794 799.428303 741.157328 783.193354 741.157328 783.193354c-82.16296-27.317066-154.79671-37.199209-215.748355-38.116837 2.576416-94.586225 8.646875-274.476519 18.281964-294.946673a596.457911 596.457911 0 0 1 24.352424-46.269604c2.823469-4.694018 8.435115-17.29375 7.65866-20.2231-0.352934-1.870548-0.247054-3.635217-0.352933-5.435179a582.975844 582.975844 0 0 0-47.99898 74.645473c5.152832-28.622921 9.776263-63.175128 11.435051-99.88023M844.496308 253.510494c-1.764668-3.105816-4.552844-8.646875-9.070395-13.058546-8.752755-9.882143-24.140663-19.905459-42.457921-24.881824a119.750396 119.750396 0 0 0-59.116391-0.141173c-20.187806 4.482258-39.422691 14.329107-56.575268 27.175893-17.046697 13.058546-32.152258 29.081735-43.728482 47.646046a210.736697 210.736697 0 0 0-25.940625 57.598775A203.854491 203.854491 0 0 0 599.983858 401.001477c-0.035293 1.552908 0.176467 3.105816 0.247054 4.623431 6.70574-10.129196 13.764413-20.187806 21.317194-29.928776 6.352806-8.823342 13.764413-16.587883 20.64662-24.493597 6.9175-7.976301 14.787921-14.399694 21.776008-21.352487 7.517487-6.246926 15.176148-11.646811 22.128941-17.011403l21.352487-11.823278 18.987832-6.70574c5.576352-2.470536 10.835064-1.976429 14.964388-2.858763l13.058546-1.694081-12.917373 2.823469c-4.023444 1.235268-9.211569 1.199974-14.540867 4.129324l-18.211378 8.152768a8512.760241 8512.760241 0 0 1-20.011339 13.376186c-6.529273 5.823406-13.552653 11.646811-20.470153 18.352551-6.3881 7.34102-13.552653 14.15264-19.799579 22.517169-6.211633 8.258648-12.882079 16.270242-18.529018 25.481811-8.611582 12.458559-16.129069 25.764158-23.223036 38.928584 9.246862 0.529401 39.281518-4.270497 52.445944-6.176339a199.936927 199.936927 0 0 0 45.599031-12.811492c15.387908-5.999872 29.999362-14.823214 43.481429-24.775944 27.24648-20.011339 47.928393-47.540166 63.563354-73.233738 7.905714-13.129133 15.211441-25.058291 22.234822-33.916926 3.317577-3.811684 6.70574-8.329235 9.070395-10.446837l3.882271-3.45875s-0.952921-1.835255-2.541123-5.188125M415.85836 347.884959a210.277884 210.277884 0 0 0-25.975918-57.598776 181.302029 181.302029 0 0 0-43.728483-47.646046c-17.152577-12.846786-36.352169-22.728929-56.575268-27.175893a119.362169 119.362169 0 0 0-59.11639 0.10588c-18.317258 5.011658-33.740459 15.034975-42.457922 24.881824-4.482258 4.411671-7.305727 9.95273-9.070395 13.058546L176.463448 258.663326l3.846977 3.529336c2.399949 2.117602 5.752819 6.59986 9.140983 10.411544 6.988087 8.893929 14.293814 20.823087 22.164234 33.916926 15.670255 25.728865 36.352169 53.257692 63.563355 73.269031 13.51736 9.882143 28.093521 18.740778 43.516722 24.775944 15.176148 6.3881 30.952283 10.48213 45.599031 12.811492 13.164426 1.870548 43.199082 6.70574 52.445944 6.141046-7.058674-13.199719-14.611454-26.470026-23.223036-38.928584-5.646939-9.176276-12.317385-17.152577-18.493724-25.481811-6.282219-8.293941-13.446773-15.176148-19.834873-22.517169-6.882207-6.670446-13.976174-12.493852-20.470153-18.352551l-20.046633-13.340893a2105.355252 2105.355252 0 0 1-18.176084-8.188061c-5.329298-2.894056-10.517424-2.858763-14.540867-4.129324l-12.917373-2.823469 13.058546 1.694081c4.129324 0.882334 9.423329 0.42352 14.964388 2.894056 5.646939 1.941135 11.999745 4.235204 18.987832 6.70574l21.352487 11.823278c6.988087 5.294005 14.611454 10.729184 22.128942 16.97611 7.02338 6.952793 14.823214 13.41148 21.776007 21.387781 6.882207 7.941008 14.293814 15.634962 20.64662 24.493597 7.552781 9.705676 14.611454 19.764286 21.352488 29.928775 0-1.517615 0.282347-3.070523 0.21176-4.658724a205.619159 205.619159 0 0 0-7.658661-53.116518M538.926333 852.509527c-2.682296-3.176403-5.470472-5.435179-5.470472-5.435178s-1.905842 2.188189-3.24699 5.646939c-1.799962 3.45875-0.176467 7.835128 0.988214 12.282091 1.270561 4.164617 4.341084 8.258648 4.517551 11.752692a26.117092 26.117092 0 0 0 2.858763 5.611645s2.823469-2.117602 5.788112-5.364592c3.88227-3.176403 2.505829-7.870421 2.152896-12.564438a74.786646 74.786646 0 0 0-7.588074-11.929159M397.823449 923.096262A47.646046 47.646046 0 0 0 392.211804 917.661084s-1.764668 2.188189-3.176403 5.646939c-1.764668 3.45875-0.247054 7.835128 0.917627 12.282091 1.270561 4.129324 4.341084 8.258648 4.588138 11.717398 1.270561 3.388163 2.823469 5.646939 2.823469 5.646939s2.823469-2.117602 5.788113-5.399885c3.952857-3.14111 2.541122-7.835128 2.152895-12.564439a79.44537 79.44537 0 0 0-7.482194-11.893865M576.407889 950.236862c-1.129388-3.494043-1.835255-5.294005-2.117602-8.117475 0-2.611709 0.42352-5.258712 0.847041-7.623367 1.941135-9.84685 1.058801-16.834936 1.058801-16.834936l-2.71759 4.376377a85.480536 85.480536 0 0 0-6.635153 11.505638 35.505128 35.505128 0 0 0-2.047015 8.399822c-0.458814 2.92935 0.670574 7.058674 1.905842 9.705676 2.541122 6.176339 3.24699 12.140918 4.588138 18.952538 2.470536 13.199719 5.011658 26.470026 6.811619 36.387462l3.917564 16.552589s1.411735-26.717079-1.729375-53.434158c-0.952921-6.458686-1.658788-13.870293-3.88227-19.870166M724.569446 944.236989c-2.470536-0.070587-5.223418-1.058801-8.082182-1.764668-2.470536-1.235268-5.294005-4.058737-8.117474-5.646939-5.823406-2.576416-11.364464-12.070332-18.564311-14.47028l-10.37625-4.235205a358.862961 358.862961 0 0 0-10.023317-0.352933c-6.564566-0.741161-12.282092 2.329362-17.364337 3.24699a230.289223 230.289223 0 0 0-16.764349 5.505765s6.776327 1.588202 16.870229 2.470536c5.046952 0.247054 11.082117-0.141173 17.18787 1.094094 3.03523 0.42352 6.176339 0.741161 9.42333 1.164681l9.246862 4.835192c6.352806 1.411735 12.140918 10.16449 18.776071 12.670318 6.49398 4.588138 12.564439 4.799898 17.646684 3.529337 10.16449-2.894056 16.729056-0.070587 16.729056-0.070586l-4.411671-3.388164a23.434796 23.434796 0 0 0-12.176211-4.588138M389.811855 917.661084l-1.164681 0.74116-0.423521 0.847041zM371.176957 898.214438l9.529209 0.10588 9.352742 4.129324c5.999872 2.117602 11.858571 5.823406 16.76435 8.435115C416.811281 915.543482 423.517021 917.661084 423.517021 917.661084s-6.211633-6.423393-15.634962-15.176148c-4.870485-3.811684-10.023316-10.129196-16.517296-13.235013l-9.776263-5.294005-10.58801-1.411735c-7.270434-1.411735-13.72912 5.470472-19.658406 4.835191-5.858699 1.799962-11.682105 1.799962-16.658469-1.199974-4.799898-2.152895-9.423329-2.964643-12.387972-2.082309-2.92935 0.847041-4.658725 1.270561-4.658725 1.270561s6.70574 0.635281 16.234949 9.42333c4.729311 4.164617 10.69389 7.305727 17.540804 6.035165 6.776327 1.270561 13.41148-4.799898 19.764286-2.611709" /></svg>